<?xml version="1.0" encoding="UTF-8" standalone="no"?>
<!-- Created with Inkscape (http://www.inkscape.org/) -->

<svg
   width="151.07709mm"
   height="151.07709mm"
   viewBox="0 0 151.07709 151.07709"
   version="1.1"
   id="svg1"
   xml:space="preserve"
   inkscape:version="1.3 (0e150ed6c4, 2023-07-21)"
   sodipodi:docname="strike-em-all-logo.svg"
   xmlns:inkscape="http://www.inkscape.org/namespaces/inkscape"
   xmlns:sodipodi="http://sodipodi.sourceforge.net/DTD/sodipodi-0.dtd"
   xmlns="http://www.w3.org/2000/svg"
   xmlns:svg="http://www.w3.org/2000/svg"><sodipodi:namedview
     id="namedview1"
     pagecolor="#ffffff"
     bordercolor="#000000"
     borderopacity="0.25"
     inkscape:showpageshadow="2"
     inkscape:pageopacity="0.0"
     inkscape:pagecheckerboard="0"
     inkscape:deskcolor="#d1d1d1"
     inkscape:document-units="mm"
     inkscape:zoom="1"
     inkscape:cx="103"
     inkscape:cy="336.5"
     inkscape:window-width="1920"
     inkscape:window-height="1017"
     inkscape:window-x="-8"
     inkscape:window-y="-8"
     inkscape:window-maximized="1"
     inkscape:current-layer="layer1" /><defs
     id="defs1" /><g
     inkscape:label="Слой 1"
     inkscape:groupmode="layer"
     id="layer1"><path
       style="fill:#b41b1b;stroke:none"
       d="M 35.983334,26.458334 C 22.445659,27.52676 11.916293,38.056028 10.847917,51.593751 c -1.7113964,0 -8.6103913,-1.001868 -8.6103913,1.5875 0,2.589369 6.898996,1.5875 8.6103913,1.5875 1.068376,13.537724 11.597738,24.066991 25.135417,25.135418 0,1.711402 -1.001868,8.610392 1.5875,8.610392 2.589369,0 1.5875,-6.898998 1.5875,-8.610392 13.537672,-1.068427 24.06704,-11.597686 25.135418,-25.135418 1.711386,0 8.610392,1.001877 8.610392,-1.5875 0,-2.58936 -6.898998,-1.5875 -8.610392,-1.5875 C 63.225018,38.05149 52.698093,27.52693 39.158334,26.458334 c 0,-1.711394 1.001869,-8.610392 -1.5875,-8.610392 -2.589373,0 -1.5875,6.898998 -1.5875,8.610392 m 75.935416,0 c -13.537721,1.068434 -24.06698,11.597702 -25.135414,25.135417 -1.711395,0 -8.610392,-1.00186 -8.610392,1.5875 0,2.589369 6.898997,1.5875 8.610392,1.5875 1.068434,13.537732 11.597693,24.066983 25.135414,25.135418 0,1.711402 -1.00187,8.610392 1.5875,8.610392 2.58937,0 1.5875,-6.898998 1.5875,-8.610392 13.53777,-1.068435 24.06693,-11.597686 25.13542,-25.135418 1.71139,0 8.61039,1.001869 8.61039,-1.5875 0,-2.589385 -6.89898,-1.5875 -8.61039,-1.5875 -1.06885,-13.542261 -11.59557,-24.066813 -25.13542,-25.135417 0,-1.711386 1.00186,-8.610392 -1.5875,-8.610392 -2.58937,0 -1.5875,6.898998 -1.5875,8.610392 m -75.935416,3.175 c 0.01283,3.635138 3.16217,3.635122 3.175,0 11.734063,0.926082 21.032745,10.221809 21.960418,21.960417 -3.635131,0.01284 -3.635131,3.162162 0,3.175 -0.927544,11.73697 -10.22348,21.032826 -21.960418,21.960418 -0.01283,-3.635139 -3.162169,-3.635131 -3.175,0 -11.736951,-0.927592 -21.03286,-10.223448 -21.960417,-21.960418 3.635132,-0.01284 3.635136,-3.162161 0,-3.175 0.927558,-11.736977 10.223462,-21.032825 21.960417,-21.960417 m 75.935416,0 c 0.0128,3.635122 3.16216,3.635138 3.175,0 11.73418,0.92609 21.03259,10.221792 21.96042,21.960417 -3.63513,0.01284 -3.63514,3.162162 0,3.175 -0.9277,11.736978 -10.22337,21.032818 -21.96042,21.960418 -0.0128,-3.635147 -3.16216,-3.635131 -3.175,0 -11.73697,-0.927592 -21.032822,-10.22344 -21.960414,-21.960418 3.635146,-0.01284 3.63513,-3.162161 0,-3.175 C 90.885928,39.856774 100.18178,30.560926 111.91875,29.633334 M 35.983334,38.477893 C 17.230863,41.164317 20.063813,70.234684 38.893751,67.922172 58.115786,65.561504 55.00094,35.753487 35.983334,38.477893 m 75.935416,0 c -18.752454,2.686424 -15.919528,31.756791 2.91042,29.444279 19.22202,-2.36066 16.1072,-32.168685 -2.91042,-29.444279 M 36.247918,41.616146 C 51.135414,39.676722 53.8334,62.800141 38.893751,64.746356 24.006247,66.685781 21.308273,43.562361 36.247918,41.616146 m 75.935422,0 c 14.88751,-1.939424 17.58547,21.183995 2.64583,23.13021 -14.887521,1.939425 -17.585466,-21.183995 -2.64583,-23.13021 M 73.818752,67.468752 c -16.101166,0.332392 -30.88851,15.119604 -31.220834,31.220834 -2.137124,0 -10.93613,-1.276408 -10.687044,2.115854 0.228491,3.11176 8.493884,1.8529 10.687044,1.8529 0.332231,16.09656 15.123237,30.88856 31.220834,31.22083 0,2.13713 -1.276408,10.93614 2.115851,10.68704 3.111753,-0.22849 1.852899,-8.49388 1.852899,-10.68704 16.095078,-0.33221 30.888518,-15.12385 31.220838,-31.22083 2.19316,0 10.45855,1.25886 10.68704,-1.8529 0.24909,-3.392262 -8.54992,-2.115854 -10.68704,-2.115854 -0.33232,-16.097637 -15.124234,-30.888531 -31.220838,-31.220834 0,-2.137128 1.276408,-10.936131 -2.115851,-10.687042 -3.111761,0.228491 -1.852899,8.493886 -1.852899,10.687042 m -0.264583,4.233333 c 1.398929,4.731018 3.098987,4.731026 4.497916,0 15.508211,3.693929 23.029005,11.214715 26.722915,26.722918 -4.73102,1.398929 -4.73102,3.098987 0,4.497917 -3.69391,15.50821 -11.214704,23.02901 -26.722915,26.72292 -1.398929,-4.73103 -3.098987,-4.73103 -4.497916,0 -15.508211,-3.69391 -23.029006,-11.21473 -26.722918,-26.72292 4.731026,-1.39893 4.731022,-3.098988 0,-4.497917 3.694074,-15.508881 11.21394,-23.028812 26.722918,-26.722918 m 0,10.695827 C 50.062716,85.595593 54.284123,121.79793 77.787502,118.98697 101.69392,116.1278 97.299773,79.165632 73.554169,82.397912 m 0.79375,4.196579 C 92.530982,84.361374 95.482215,112.5153 77.258335,114.75343 59.078824,116.98611 56.128092,88.832129 74.347919,86.594491 Z"
       id="path1" /></g></svg>
